<?xml version="1.0" encoding="utf-8"?>
<svg xmlns="http://www.w3.org/2000/svg" xmlns:xlink="http://www.w3.org/1999/xlink">
  <symbol viewBox="0 0 24 24" id="dashboard"><path d="M19,5v2h-4V5H19 M9,5v6H5V5H9 M19,13v6h-4v-6H19 M9,17v2H5v-2H9 M21,3h-8v6h8V3L21,3z M11,3H3v10h8V3L11,3z M21,11h-8v10h8
		V11L21,11z M11,15H3v6h8V15L11,15z"/></symbol>
  <symbol viewBox="0 0 24 24" id="videocam"><path d="M15,8v8H5V8H15 M16,6H4C3.45,6,3,6.45,3,7v10c0,0.55,0.45,1,1,1h12c0.55,0,1-0.45,1-1v-3.5l4,4v-11l-4,4V7
		C17,6.45,16.55,6,16,6L16,6z"/></symbol>
  <symbol viewBox="0 0 24 24" id="show_chart"><path d="M3.5 18.49l6-6.01 4 4L22 6.92l-1.41-1.41-7.09 7.97-4-4L2 16.99z"/></symbol>
  <symbol viewBox="0 0 24 24" id='bar_chart'><path d="M5,9.2h3V19H5V9.2z M10.6,5h2.8v14h-2.8V5z M16.2,13H19v6h-2.8V13z"/></symbol>
</svg>