<?xml version="1.0" encoding="utf-8"?>
<svg xmlns="http://www.w3.org/2000/svg" xmlns:xlink="http://www.w3.org/1999/xlink">
  <symbol viewBox="0 0 24 24" id="dashboard"><path d="M3 13h8V3H3v10zm0 8h8v-6H3v6zm10 0h8V11h-8v10zm0-18v6h8V3h-8z"/></symbol>
  <symbol viewBox="0 0 24 24" id="videocam"><path d="M17 10.5V7c0-.55-.45-1-1-1H4c-.55 0-1 .45-1 1v10c0 .55.45 1 1 1h12c.55 0 1-.45 1-1v-3.5l4 4v-11l-4 4z"/></symbol>
  <symbol viewBox="0 0 24 24" id="show_chart"><path d="M3.5 18.49l6-6.01 4 4L22 6.92l-1.41-1.41-7.09 7.97-4-4L2 16.99z"/></symbol>
  <symbol viewBox="0 0 24 24" id='bar_chart'><path d="M5,9.2h3V19H5V9.2z M10.6,5h2.8v14h-2.8V5z M16.2,13H19v6h-2.8V13z"/></symbol>
  <symbol viewBox="0 0 24 24" id='menu'><path d="M3,18h18v-2H3V18z M3,13h18v-2H3V13z M3,6v2h18V6H3z"/></symbol>
  <symbol viewBox="0 0 24 24" id="chevron_left"><path d="M15.41 7.41L14 6l-6 6 6 6 1.41-1.41L10.83 12z"/></symbol>
	<symbol viewBox="0 0 24 24" id="chevron_right"><path d="M10 6L8.59 7.41 13.17 12l-4.58 4.59L10 18l6-6z"/></symbol>
</svg>