<?xml version="1.0" encoding="utf-8"?>
<svg xmlns="http://www.w3.org/2000/svg" xmlns:xlink="http://www.w3.org/1999/xlink">
  <symbol viewBox="0 0 24 24" id="dashboard"><path d="M19,5v2h-4V5H19 M9,5v6H5V5H9 M19,13v6h-4v-6H19 M9,17v2H5v-2H9 M21,3h-8v6h8V3L21,3z M11,3H3v10h8V3L11,3z M21,11h-8v10h8
		V11L21,11z M11,15H3v6h8V15L11,15z"/></symbol>
  <symbol viewBox="0 0 24 24" id="videocam"><path d="M15,8v8H5V8H15 M16,6H4C3.45,6,3,6.45,3,7v10c0,0.55,0.45,1,1,1h12c0.55,0,1-0.45,1-1v-3.5l4,4v-11l-4,4V7
		C17,6.45,16.55,6,16,6L16,6z"/></symbol>
  <symbol viewBox="0 0 24 24" id="show_chart"><path d="M3.5 18.49l6-6.01 4 4L22 6.92l-1.41-1.41-7.09 7.97-4-4L2 16.99z"/></symbol>
  <symbol viewBox="0 0 24 24" id='bar_chart'><path d="M5,9.2h3V19H5V9.2z M10.6,5h2.8v14h-2.8V5z M16.2,13H19v6h-2.8V13z"/></symbol>
  <symbol viewBox="0 0 24 24" id='menu'><path d="M3,18h18v-2H3V18z M3,13h18v-2H3V13z M3,6v2h18V6H3z"/></symbol>
  <symbol viewBox="0 0 24 24" id="chevron_left"><path d="M15.41 7.41L14 6l-6 6 6 6 1.41-1.41L10.83 12z"/></symbol>
	<symbol viewBox="0 0 24 24" id="chevron_right"><path d="M10 6L8.59 7.41 13.17 12l-4.58 4.59L10 18l6-6z"/></symbol>
  <symbol viewBox="0 0 24 24" id="calendar"><path d="M20,3h-1V1h-2v2H7V1H5v2H4C2.9,3,2,3.9,2,5v16c0,1.1,0.9,2,2,2h16c1.1,0,2-0.9,2-2V5C22,3.9,21.1,3,20,3z M20,21H4V10h16
		V21z M20,8H4V5h1h2h10h2h1V8z"/></symbol>
  <symbol viewBox="0 0 24 24" id="location"><path d="M12,2C8.13,2,5,5.13,5,9c0,5.25,7,13,7,13s7-7.75,7-13C19,5.13,15.87,2,12,2z M7,9c0-2.76,2.24-5,5-5s5,2.24,5,5
			c0,2.88-2.88,7.19-5,9.88C9.92,16.21,7,11.85,7,9z"/><circle cx="12" cy="9" r="2.5"/></symbol>
  <symbol viewBox="0 0 24 24" id="status"><path fill="none" d="M24 24H0V0h24v24z"/><circle cx="12" cy="12" r="8"/></symbol>
  <symbol viewBox="0 0 24 24" id="volume"><path d="M3 9v6h4l5 5V4L7 9H3zm13.5 3c0-1.77-1.02-3.29-2.5-4.03v8.05c1.48-.73 2.5-2.25 2.5-4.02zM14 3.23v2.06c2.89.86 5 3.54 5 6.71s-2.11 5.85-5 6.71v2.06c4.01-.91 7-4.49 7-8.77s-2.99-7.86-7-8.77z"/><path d="M0 0h24v24H0z" fill="none"/></symbol>
  <symbol viewBox="0 0 24 24" id="motionSearch"><path d="M18,13v7H4V6h5.02C9.07,5.29,9.24,4.62,9.5,4H4C2.9,4,2,4.9,2,6v14c0,1.1,0.9,2,2,2h14c1.1,0,2-0.9,2-2v-5L18,13z M16.5,18
		h-11l2.75-3.53l1.96,2.36l2.75-3.54L16.5,18z M19.3,8.89C19.74,8.19,20,7.38,20,6.5C20,4.01,17.99,2,15.5,2S11,4.01,11,6.5
		s2.01,4.5,4.49,4.5c0.88,0,1.7-0.26,2.39-0.7L21,13.42L22.42,12L19.3,8.89z M15.5,9C14.12,9,13,7.88,13,6.5S14.12,4,15.5,4
		S18,5.12,18,6.5S16.88,9,15.5,9z"/></symbol>
  <symbol viewBox="0 0 24 24" id="starBorder"><path d="M22,9.24l-7.19-0.62L12,2L9.19,8.63L2,9.24l5.46,4.73L5.82,21L12,17.27L18.18,21l-1.63-7.03L22,9.24z M12,15.4l-3.76,2.27
		l1-4.28l-3.32-2.88l4.38-0.38L12,6.1l1.71,4.04l4.38,0.38l-3.32,2.88l1,4.28L12,15.4z"/></symbol>
  <symbol viewBox="0 0 24 24" id="star"><path d="M12,17.27L18.18,21l-1.64-7.03L22,9.24l-7.19-0.61L12,2L9.19,8.63L2,9.24l5.46,4.73L5.82,21L12,17.27z"/></symbol>
</svg>