<?xml version="1.0" encoding="utf-8"?>
<!-- Generator: Adobe Illustrator 13.0.0, SVG Export Plug-In . SVG Version: 6.00 Build 14948)  -->
<!DOCTYPE svg PUBLIC "-//W3C//DTD SVG 1.1//EN" "http://www.w3.org/Graphics/SVG/1.1/DTD/svg11.dtd">
<svg version="1.1" id="Layer_1" xmlns="http://www.w3.org/2000/svg" xmlns:xlink="http://www.w3.org/1999/xlink" x="0px" y="0px"
	 width="600px" height="400px" viewBox="0 0 600 400" enable-background="new 0 0 600 400" xml:space="preserve" preserveAspectRatio="none">
<g id="Layer_1_1_">
	<rect fill="#EAEAEA" width="600" height="400"/>
</g>
<g id="Layer_2">
	<path fill="#D1D1D1" d="M282.48,85.26C277.85,76.28,267.3,70,255.02,70c-10.04,0-18.93,4.2-24.37,10.65
		c-1.8-0.37-3.68-0.56-5.61-0.56c-13.31,0-24.1,9.16-24.1,20.46c0,11.3,10.79,20.45,24.1,20.45c5.27,0,10.14-1.44,14.1-3.87
		c4.61,2.45,10.05,3.87,15.88,3.87c4.45,0,8.68-0.83,12.48-2.31c3.56,1.47,7.66,2.31,12.04,2.31c13.54,0,24.52-8.03,24.52-17.93
		C304.06,93.89,294.64,86.33,282.48,85.26z"/>
	<path fill="#D1D1D1" d="M303.45,145.32c3.02-5.86,9.9-9.95,17.91-9.95c6.55,0,12.34,2.74,15.89,6.95c1.17-0.24,2.4-0.37,3.66-0.37
		c8.68,0,15.71,5.97,15.71,13.34s-7.04,13.34-15.71,13.34c-3.43,0-6.61-0.94-9.2-2.53c-3,1.6-6.55,2.53-10.35,2.53
		c-2.9,0-5.66-0.54-8.13-1.51c-2.32,0.96-5,1.51-7.85,1.51c-8.83,0-15.99-5.24-15.99-11.69
		C289.38,150.95,295.52,146.02,303.45,145.32z"/>
	<path fill="#D1D1D1" d="M415.31,119.61c1.27-2.46,4.16-4.18,7.52-4.18c2.75,0,5.18,1.15,6.67,2.92c0.49-0.1,1.01-0.15,1.54-0.15
		c3.64,0,6.6,2.51,6.6,5.6c0,3.09-2.96,5.6-6.6,5.6c-1.44,0-2.78-0.39-3.86-1.06c-1.26,0.67-2.75,1.06-4.35,1.06
		c-1.22,0-2.38-0.23-3.42-0.63c-0.97,0.4-2.1,0.63-3.3,0.63c-3.71,0-6.71-2.2-6.71-4.91C409.4,121.97,411.98,119.9,415.31,119.61z"
		/>
	<path fill="#D1D1D1" d="M123.98,167.18c1.27-2.46,4.16-4.18,7.52-4.18c2.75,0,5.18,1.15,6.67,2.92c0.49-0.1,1.01-0.15,1.54-0.15
		c3.64,0,6.6,2.51,6.6,5.6c0,3.09-2.96,5.6-6.6,5.6c-1.44,0-2.78-0.39-3.86-1.06c-1.26,0.67-2.75,1.06-4.35,1.06
		c-1.22,0-2.38-0.23-3.42-0.63c-0.97,0.4-2.1,0.63-3.3,0.63c-3.71,0-6.71-2.2-6.71-4.91C118.07,169.54,120.65,167.47,123.98,167.18z
		"/>
	<g>
		<g>
			<polygon fill="#D1D1D1" points="224,140.83 114,293.5 224,293.5 			"/>
			<polygon fill="#BCBCBC" points="224,140.83 334,293.5 224,293.5 			"/>
		</g>
		<g>
			<polygon fill="#D1D1D1" points="386.19,155.83 287,293.5 386.19,293.5 			"/>
			<polygon fill="#BCBCBC" points="386.2,155.83 485.39,293.5 386.2,293.5 			"/>
		</g>
		<g>
			<polygon fill="#D1D1D1" points="295.5,197.04 226,293.5 295.5,293.5 			"/>
			<polygon fill="#BCBCBC" points="295.5,197.04 365,293.5 295.5,293.5 			"/>
		</g>
	</g>
	<g>
		<path fill="#D1D1D1" d="M182.88,318.43v-18.25h2.57l5.85,9.24c1.35,2.14,2.41,4.06,3.28,5.93l0.05-0.03
			c-0.22-2.44-0.27-4.66-0.27-7.5v-7.64h2.22v18.25h-2.38l-5.8-9.26c-1.27-2.03-2.49-4.12-3.41-6.09l-0.08,0.03
			c0.14,2.3,0.19,4.5,0.19,7.53v7.8L182.88,318.43L182.88,318.43z"/>
		<path fill="#D1D1D1" d="M216.3,309.11c0,6.28-3.82,9.62-8.48,9.62c-4.82,0-8.21-3.74-8.21-9.26c0-5.8,3.6-9.59,8.48-9.59
			C213.08,299.87,216.3,303.69,216.3,309.11z M202.13,309.41c0,3.9,2.11,7.39,5.82,7.39c3.74,0,5.85-3.44,5.85-7.58
			c0-3.63-1.9-7.42-5.82-7.42C204.08,301.8,202.13,305.4,202.13,309.41z"/>
		<path fill="#D1D1D1" d="M227.46,300.17v18.25h-2.36v-18.25H227.46z"/>
		<path fill="#D1D1D1" d="M246.96,310.41c-0.14-2.55-0.3-5.61-0.27-7.88h-0.08c-0.62,2.14-1.38,4.42-2.3,6.93l-3.22,8.86h-1.79
			l-2.95-8.69c-0.87-2.57-1.6-4.93-2.11-7.1h-0.05c-0.05,2.28-0.19,5.34-0.35,8.07l-0.49,7.83h-2.25l1.27-18.25h3.01l3.11,8.83
			c0.76,2.25,1.38,4.25,1.84,6.15h0.08c0.46-1.84,1.11-3.85,1.92-6.15l3.25-8.83h3.01l1.14,18.25h-2.3L246.96,310.41z"/>
		<path fill="#D1D1D1" d="M256.03,312.68l-1.9,5.74h-2.44l6.2-18.25h2.84l6.23,18.25h-2.52l-1.95-5.74H256.03z M262.02,310.84
			l-1.79-5.25c-0.41-1.19-0.68-2.28-0.95-3.33h-0.05c-0.27,1.08-0.57,2.19-0.92,3.3l-1.79,5.28H262.02z"/>
		<path fill="#D1D1D1" d="M283.14,317.61c-1.06,0.38-3.14,1-5.61,1c-2.76,0-5.04-0.7-6.83-2.41c-1.57-1.52-2.55-3.95-2.55-6.8
			c0.03-5.44,3.76-9.42,9.89-9.42c2.11,0,3.76,0.46,4.55,0.84l-0.57,1.92c-0.98-0.43-2.19-0.79-4.04-0.79
			c-4.44,0-7.34,2.76-7.34,7.34c0,4.63,2.79,7.37,7.04,7.37c1.54,0,2.6-0.22,3.14-0.49v-5.44h-3.71v-1.9h6.01v8.78H283.14z"/>
		<path fill="#D1D1D1" d="M296.2,309.87h-7.1v6.58h7.91v1.98h-10.26v-18.25h9.86v1.98h-7.5v5.77h7.1L296.2,309.87L296.2,309.87z"/>
		<path fill="#D1D1D1" d="M308.76,312.68l-1.9,5.74h-2.44l6.2-18.25h2.84l6.23,18.25h-2.52l-1.95-5.74H308.76z M314.75,310.84
			l-1.79-5.25c-0.41-1.19-0.68-2.28-0.95-3.33h-0.05c-0.27,1.08-0.57,2.19-0.92,3.3l-1.79,5.28H314.75z"/>
		<path fill="#D1D1D1" d="M324.96,318.43L319,300.17h2.55l2.84,8.99c0.79,2.46,1.46,4.69,1.95,6.83h0.05
			c0.51-2.11,1.27-4.42,2.09-6.8l3.09-9.02h2.52l-6.53,18.25L324.96,318.43L324.96,318.43z"/>
		<path fill="#D1D1D1" d="M337.47,312.68l-1.9,5.74h-2.44l6.2-18.25h2.84l6.23,18.25h-2.52l-1.95-5.74H337.47z M343.46,310.84
			l-1.79-5.25c-0.41-1.19-0.68-2.28-0.95-3.33h-0.05c-0.27,1.08-0.57,2.19-0.92,3.3l-1.79,5.28H343.46z"/>
		<path fill="#D1D1D1" d="M353.45,300.17v18.25h-2.36v-18.25H353.45z"/>
		<path fill="#D1D1D1" d="M357.57,300.17h2.36v16.28h7.8v1.98h-10.16V300.17L357.57,300.17z"/>
		<path fill="#D1D1D1" d="M373.31,312.68l-1.9,5.74h-2.44l6.2-18.25h2.84l6.23,18.25h-2.52l-1.95-5.74H373.31z M379.29,310.84
			l-1.79-5.25c-0.41-1.19-0.68-2.28-0.95-3.33h-0.05c-0.27,1.08-0.57,2.19-0.92,3.3l-1.79,5.28H379.29z"/>
		<path fill="#D1D1D1" d="M386.93,300.42c1.03-0.22,2.65-0.38,4.31-0.38c2.36,0,3.87,0.41,5.01,1.33c0.95,0.7,1.52,1.79,1.52,3.22
			c0,1.76-1.17,3.3-3.09,4.01v0.05c1.73,0.43,3.76,1.87,3.76,4.58c0,1.57-0.62,2.76-1.54,3.66c-1.27,1.17-3.33,1.71-6.31,1.71
			c-1.63,0-2.87-0.11-3.66-0.22V300.42z M389.29,307.89h2.14c2.49,0,3.95-1.3,3.95-3.06c0-2.14-1.63-2.98-4.01-2.98
			c-1.08,0-1.71,0.08-2.08,0.16V307.89L389.29,307.89z M389.29,316.64c0.46,0.08,1.14,0.11,1.98,0.11c2.44,0,4.69-0.89,4.69-3.55
			c0-2.49-2.14-3.52-4.71-3.52h-1.95L389.29,316.64L389.29,316.64z"/>
		<path fill="#D1D1D1" d="M401.61,300.17h2.36v16.28h7.8v1.98h-10.16V300.17L401.61,300.17z"/>
		<path fill="#D1D1D1" d="M423.84,309.87h-7.1v6.58h7.91v1.98h-10.26v-18.25h9.86v1.98h-7.5v5.77h7.1L423.84,309.87L423.84,309.87z"
			/>
	</g>
	<path fill="#A8A8A8" d="M218.73,279.7c-0.01,0-0.03,0-0.04,0c-1.49-2.06-4.35-3.45-7.63-3.45c-1.47,0-2.85,0.28-4.06,0.77
		c-1.19-0.9-2.68-1.44-4.29-1.44c-3.92,0-7.1,3.18-7.1,7.1c0,0.81,0.14,1.59,0.39,2.31c-2.88,0.1-5.18,2.46-5.18,5.36
		c0,2.97,2.4,5.37,5.37,5.37c0.92,0,1.77-0.23,2.53-0.64l7.26,10.23v19.18h2.97l-0.19-19.97L217,292.5
		c0.55,0.16,1.13,0.24,1.73,0.24c3.55,0,6.43-2.92,6.43-6.52C225.16,282.62,222.28,279.7,218.73,279.7z M202.11,296.55
		c1.48,1.04,3.31,1.65,5.3,1.65c0.26,0,0.52-0.01,0.77-0.03l-1.25,4.44L202.11,296.55z M207.75,302.71l1.14-4.62
		c1.14-0.18,2.2-0.57,3.15-1.12L207.75,302.71z"/>
	<path fill="#A8A8A8" d="M194.48,243.96c-0.03,0-0.06,0-0.08,0c-2.91-4.02-8.5-6.75-14.91-6.75c-2.86,0-5.56,0.54-7.93,1.5
		c-2.33-1.77-5.23-2.82-8.38-2.82c-7.66,0-13.87,6.21-13.87,13.87c0,1.58,0.27,3.1,0.76,4.52c-5.63,0.2-10.13,4.81-10.13,10.48
		c0,5.8,4.7,10.5,10.5,10.5c1.79,0,3.47-0.46,4.94-1.25L169.55,294v37.48h5.81l-0.37-39.03l16.11-23.47
		c1.07,0.3,2.21,0.47,3.38,0.47c6.94,0,12.56-5.71,12.56-12.75C207.03,249.67,201.41,243.96,194.48,243.96z M162,276.9
		c2.9,2.03,6.48,3.23,10.36,3.23c0.51,0,1.01-0.02,1.51-0.06l-2.45,8.68L162,276.9z M173.02,288.94l2.23-9.03
		c2.23-0.35,4.3-1.11,6.16-2.18L173.02,288.94z"/>
	<ellipse fill="#A8A8A8" cx="242.17" cy="326.44" rx="77.67" ry="2.56"/>
	<polygon fill="#F4F4F4" points="202,171.37 205.5,178.31 212,175.12 224,184.12 232,173.33 242.17,182.83 248.52,174.84 
		224,140.83 	"/>
	<polygon fill="#F9F9F9" points="408.18,186.34 404.68,193.28 398.18,190.09 386.18,199.09 378.18,188.3 368.02,197.8 
		361.67,189.81 386.18,155.8 	"/>
	<polygon fill="#F4F4F4" points="281.54,216.38 284.42,218.87 286.96,223.12 295.5,224.47 300.75,218.87 307.33,219.96 
		311.05,218.58 295.5,196.99 	"/>
</g>
</svg>
