<svg xmlns="http://www.w3.org/2000/svg" viewBox="0 0 148.25 148.25"><defs><style>.cls-1{fill:#fff;}.cls-2{fill:#23bcb9;}</style></defs><title>Asset 1</title><g id="Layer_2" data-name="Layer 2"><g id="Layer_1-2" data-name="Layer 1"><path class="cls-1" d="M96.61,103.37l24.87,24.87A72.16,72.16,0,0,1,44,138.45a27,27,0,0,0-25.54-35.56,27.59,27.59,0,0,0-8.7,1.42A72.19,72.19,0,0,1,19.89,26.64L44.72,51.48a37.15,37.15,0,0,0,51.89,51.89Z"/><path class="cls-1" d="M146.93,73.3A71.8,71.8,0,0,1,129.79,120L104.92,95.09A37.15,37.15,0,0,0,53,43.2L28.16,18.33A72.22,72.22,0,0,1,105.28,7.92V8a27,27,0,0,0,24.83,37.41,26.55,26.55,0,0,0,10.28-2A71.3,71.3,0,0,1,146.93,73.3Z"/><path class="cls-2" d="M100.78,73.3a25.8,25.8,0,0,1-12.22,22,25.57,25.57,0,0,1-13.74,4,26,26,0,0,1-26-26,26,26,0,0,1,26-26A26,26,0,0,1,100.78,73.3Z"/><path class="cls-2" d="M36.83,129.82a17.85,17.85,0,0,1-.55,4.37A18.4,18.4,0,1,1,14,112a18.1,18.1,0,0,1,4.4-.55A18.42,18.42,0,0,1,36.83,129.82Z"/><path class="cls-2" d="M148.25,18.4a18.35,18.35,0,0,1-12,17.2A17.55,17.55,0,0,1,128,36.7a9.43,9.43,0,0,1-1.65-.26,18.39,18.39,0,0,1-14.68-18,17.32,17.32,0,0,1,1.17-6.37A18.31,18.31,0,0,1,128.24.1a12,12,0,0,1,1.61-.1,16.54,16.54,0,0,1,1.88.1A18.4,18.4,0,0,1,148.25,18.4Z"/></g></g></svg>