<svg xmlns="http://www.w3.org/2000/svg" viewBox="0 0 675.47 148.44"><defs><style>.cls-1{fill:#333;}.cls-2{fill:#0088cc;}</style></defs><title>Asset 5</title><g id="Layer_2" data-name="Layer 2"><g id="Layer_1-2" data-name="Layer 1"><path class="cls-1" d="M63.35,43.89c-.76-4.77-1.91-13.74-13-13.74-6.29,0-12.4,4.39-12.4,11.07,0,8.39,3.82,10.11,29.19,21.56,26.34,11.83,33,24,33,40.45,0,20.61-11.83,43.31-49.23,43.31C10.11,146.54,0,119.83,0,101.7V97.12H35.87c0,16.41,10.11,19.27,14.69,19.27A13.62,13.62,0,0,0,64.3,102.85c0-9.35-5.91-11.64-27.66-20.8C26.71,78,2.1,68.12,2.1,41.6S27.86,0,51.52,0c13.93,0,29,5.15,38.16,16,8.4,10.3,9,19.84,9.35,27.86Z"/><path class="cls-1" d="M274.38,4.91h35.08V111.44h40.65v30.81H274.38Z"/><path class="cls-1" d="M363.84,4.91h35.08V142.25H363.84Z"/><path class="cls-1" d="M422.87,4.91h30.25l53.08,86.3.37-.37L505.09,4.91h33.59V142.25H508.24L455.9,58.73l-.37.19.93,83.33H422.87Z"/><path class="cls-1" d="M561.51,4.91h35.08v61.8H597l38.79-61.8H672.5L627,73.39l48.44,68.86h-41L597,82.86h-.37v59.39H561.51Z"/><path class="cls-1" d="M206.57,103.56l24.87,24.86a72.14,72.14,0,0,1-77.51,10.22,27,27,0,0,0-25.54-35.57,27.59,27.59,0,0,0-8.7,1.43,72.21,72.21,0,0,1,10.15-77.67l24.84,24.83a37.16,37.16,0,0,0,51.89,51.9Z"/><path class="cls-1" d="M256.88,73.49a71.79,71.79,0,0,1-17.13,46.66L214.88,95.28A37.15,37.15,0,0,0,163,43.39L138.12,18.52A72.16,72.16,0,0,1,215.24,8.11v0a27,27,0,0,0,24.83,37.41,26.59,26.59,0,0,0,10.28-2A71.26,71.26,0,0,1,256.88,73.49Z"/><path class="cls-2" d="M210.74,73.49a25.8,25.8,0,0,1-12.22,22,25.59,25.59,0,0,1-13.74,3.94,26,26,0,0,1-26-26,26,26,0,0,1,26-26A26,26,0,0,1,210.74,73.49Z"/><path class="cls-2" d="M146.79,130a17.77,17.77,0,0,1-.55,4.36A18.4,18.4,0,1,1,124,112.16a18.1,18.1,0,0,1,4.4-.55A18.42,18.42,0,0,1,146.79,130Z"/><path class="cls-2" d="M258.21,18.59a18.35,18.35,0,0,1-12,17.2,18.07,18.07,0,0,1-8.25,1.1,10.48,10.48,0,0,1-1.65-.26,18.4,18.4,0,0,1-14.68-18,17.32,17.32,0,0,1,1.17-6.37A18.33,18.33,0,0,1,238.2.28a14,14,0,0,1,1.61-.09c.65,0,1.26,0,1.88.09A18.42,18.42,0,0,1,258.21,18.59Z"/></g></g></svg>